<svg xmlns="http://www.w3.org/2000/svg" width="16" height="16" viewBox="0 0 16 16" fill="none">
  <!-- Keyboard body + list cue: symbolic for COSMIC panel -->
  <path fill="#232323" d="M2 2.5C2 2.5 0 2.5 0 4.5v7C0 13.5 2 13.5 2 13.5h8.5s2 0 2-2v-7c0-2-2-2-2-2H2zm.25 2h1.5a.25.25 0 0 1 .25.25v1.5a.25.25 0 0 1-.25.25H2.25a.25.25 0 0 1-.25-.25v-1.5a.25.25 0 0 1 .25-.25zm3 0h1.5a.25.25 0 0 1 .25.25v1.5a.25.25 0 0 1-.25.25H5.25a.25.25 0 0 1-.25-.25v-1.5a.25.25 0 0 1 .25-.25zm3 0h1.5a.25.25 0 0 1 .25.25v1.5a.25.25 0 0 1-.25.25H8.25a.25.25 0 0 1-.25-.25v-1.5a.25.25 0 0 1 .25-.25zm-6 3h1.5a.25.25 0 0 1 .25.25v1.5a.25.25 0 0 1-.25.25H2.25a.25.25 0 0 1-.25-.25v-1.5a.25.25 0 0 1 .25-.25zm3 0h4.5a.25.25 0 0 1 .25.25v1.5a.25.25 0 0 1-.25.25H5.25a.25.25 0 0 1-.25-.25v-1.5a.25.25 0 0 1 .25-.25z"/>
  <path fill="#232323" d="M13.25 4.5h1.5a.25.25 0 0 1 .25.25v.5a.25.25 0 0 1-.25.25h-1.5a.25.25 0 0 1-.25-.25v-.5a.25.25 0 0 1 .25-.25zm0 2.5h1.5a.25.25 0 0 1 .25.25v.5a.25.25 0 0 1-.25.25h-1.5a.25.25 0 0 1-.25-.25v-.5a.25.25 0 0 1 .25-.25zm0 2.5h1.5a.25.25 0 0 1 .25.25v.5a.25.25 0 0 1-.25.25h-1.5a.25.25 0 0 1-.25-.25v-.5a.25.25 0 0 1 .25-.25z"/>
  <path fill="#808080" fill-opacity="0" d="M0 0h16v16H0z"/>
</svg>
